<?xml version="1.0" encoding="UTF-8"?> <!-- Generator: Adobe Illustrator 24.0.2, SVG Export Plug-In . SVG Version: 6.00 Build 0) --> <svg xmlns="http://www.w3.org/2000/svg" xmlns:xlink="http://www.w3.org/1999/xlink" version="1.1" id="Layer_1" x="0px" y="0px" viewBox="0 0 283.5 283.5" style="enable-background:new 0 0 283.5 283.5;" xml:space="preserve"> <style type="text/css"> .st0{fill:#8DC1DB;} .st1{fill:#E8E3DD;} .st2{fill:#B9D16F;} .st3{fill:#F7F7F7;} .st4{fill:#F2D197;} .st5{fill:#BFBBB4;} .st6{fill:#EDB485;} </style> <rect class="st0" width="283.5" height="283.5"></rect> <polygon class="st1" points="0,0 234.3,0 239,41.4 239,82 235,97.4 224.3,116.1 216,131.6 206.5,150 197,168.6 193.9,185.2 195.9,200.4 191.7,216 181.5,229.5 171.5,235.4 161.5,238.3 149.5,242.8 136.5,240.6 125,232.3 109,210.8 83,204.7 52.3,213.1 30.3,226 9.7,248.6 0,263.1 "></polygon> <polygon class="st1" points="283.5,0 283.5,283.5 0,283.5 13,265.8 27.5,249.6 33.5,241.1 50,232.6 83,226 101,227.1 114.5,240.6 122.5,251 135,261.6 151,264.1 163,263.6 175.5,260.5 188.5,253.5 203.5,242.1 215.5,223 220.5,208.6 220,189.1 215.5,179 219,158.4 225,148.3 234,133.9 246.5,113.9 254.5,102.5 262,77.5 263,61.8 263.5,28.3 260,0 "></polygon> <polygon class="st2" points="18.5,266.9 31,252.3 35.7,242.5 50,232.6 83,226 101,227.1 114.5,240.6 117.3,248.2 111.9,256.2 108.9,254 98.7,245.2 76.3,242.5 53.3,246.1 46.3,254.4 39.7,265.4 35.3,269 23.3,269.8 "></polygon> <polygon class="st2" points="22.3,87.1 15.3,91.8 25.9,143.8 59.7,130.8 53.7,86.7 51.8,82.3 44.1,84.5 "></polygon> <polygon class="st2" points="150,269.1 178.3,264.3 195.3,254 207.5,241.1 216.8,225.3 223.8,209 223.8,196.6 226.5,196.1 229.8,208.6 230.5,221.5 238.5,243.8 237.3,254 235.5,263.6 238.5,268.5 239,274.6 240.8,283.5 147.9,283.5 139.7,273.1 142.2,268.1 "></polygon> <g> <path class="st3" d="M150.5,201.2c-0.2-0.3-0.6-0.3-0.9-0.1l-19.6,16c-0.3,0.2-0.3,0.6-0.1,0.9c0.1,0.2,0.3,0.2,0.5,0.2 c0.1,0,0.3,0,0.4-0.1l19.6-16C150.7,201.9,150.7,201.5,150.5,201.2z"></path> <path class="st3" d="M140.4,226.9c0.2,0,0.3-0.1,0.4-0.2l24.3-22.1c0.3-0.2,0.3-0.7,0-0.9c-0.2-0.3-0.7-0.3-0.9,0l-24.3,22.1 c-0.3,0.2-0.3,0.7,0,0.9C140,226.8,140.2,226.9,140.4,226.9z"></path> <path class="st3" d="M283.5,55.8v-4.5c-0.3,0-0.6,0.2-0.6,0.5l-5.1,30.4l-3.8,26.1l-8.8,5c-0.1,0.1-0.2,0.2-0.3,0.3l-18.7,35.5 l-6.1-2.7c-0.3-0.1-0.7,0-0.9,0.3c-0.1,0.3,0,0.7,0.3,0.9l6.1,2.6l-8.2,18.8l-6.6-5.4c-0.3-0.2-0.7-0.2-0.9,0.1 c-0.2,0.3-0.2,0.7,0.1,0.9l7,5.8l-1.9,20.6l-8.1-8.4c-0.2-0.3-0.7-0.3-0.9,0c-0.3,0.3-0.3,0.7,0,0.9l8.9,9.2l-2.1,16.7 c0,0.4,0.2,0.7,0.6,0.7c0,0,0.1,0,0.1,0c0.3,0,0.6-0.2,0.6-0.6l2-15.7l3.8,3.9l-1.6,18.2c0,0,0,0.1,0,0.1c0,0,0,0.1,0,0.1l4.5,23 l-4.4,4.7l-8.5,7.4L212.3,263l-15.8,3l-19.6,2.4l-26.8-0.5l-16.4-2.1l-15.3-6.9c0,0,0,0,0,0c0,0,0,0,0,0c-0.1,0-0.1,0-0.2,0 c0,0,0,0,0,0l-12.4,0l-6.1-21.3c-0.1-0.3-0.5-0.5-0.8-0.4c-0.3,0.1-0.5,0.5-0.4,0.8l3.2,11H89.1l-1.5-11.2c0-0.4-0.4-0.6-0.7-0.6 c-0.4,0-0.6,0.4-0.6,0.7l1.5,11.1H75.5l-1.6-13.2c0-0.4-0.4-0.6-0.7-0.6c-0.4,0-0.6,0.4-0.6,0.7l1.6,13.1H55.2 c-0.2,0-0.4,0.1-0.5,0.2c-0.1,0.1-0.2,0.3-0.2,0.5l1,13.1h-9.3c-0.4,0-0.6,0.3-0.6,0.7c0,0.4,0.3,0.7,0.6,0.7l9.4,0l0.6,7.8v0.5 l-14-0.9c0,0-0.1,0-0.1,0l-20.2,1.9c-0.2,0-0.3,0.1-0.4,0.2l-9.7,10c0,0,0,0.1-0.1,0.1h1.8l8.7-9l19.9-1.9l14.1,0.9v10.1h1.3l0-10 l15.8,1l3.9,0.3l1.2,0.1l25,1.9c0.1,0,0.1,0,0.2,0l5.2-1.2v8h1.3v-8.3l12.4-3c0,0,0,0,0,0c0,0,0,0,0,0l7.6-2.5 c0.1,0,0.1-0.1,0.2-0.1l3.1-2.5l16.3,2.1l26.9,0.5l19.7-2.4l16-3c0.1,0,0.2,0,0.2-0.1l17.9-11.9l8.6-7.5l4-4.3l10.7,22.1l-12.3,1.7 c-0.4,0-0.6,0.4-0.6,0.7c0,0.3,0.3,0.6,0.6,0.6c0,0,0.1,0,0.1,0l12.9-1.7l11.5,10.9l-4.8,8.4c-0.1,0.1-0.1,0.2-0.1,0.3h1.4l8-14.2 l6.3-12.7c0-0.1,0.1-0.1,0.1-0.2l1.2-9.6h5l0,0v-1.3l0,0h-4.8l1.6-13.2h3.2l0,0V231l0,0h-3.2l-2.9-28.8l0.3-8.5h5.8l0,0v-1.3l0,0 h-5.8l0-26.6l0,0l5.8-0.3V164c0,0,0,0,0,0l-5.8,0.3l-0.4-8.4l6.2-1v-1.3c0,0-0.1,0-0.1,0l-6.2,1l-1.1-24.3l7.4-1.3v-1.3 c0,0-0.1,0-0.1,0L276,129l-0.9-19.8l8.3-1.8v-1.3c0,0-0.1,0-0.1,0l-8,1.7l3.7-25.5L283.5,55.8z M101.9,250l2.5,8.7l-14,0l-1.2-8.7 H101.9z M88,250l1.2,8.8l-12.3,1.4L75.6,250H88z M55.9,250h18.4l1.3,10.3l-18.7,2.1L55.9,250z M73.5,273.1l-15.9-1l0-0.7l-0.6-7.8 l18.8-2.1l1.5,11.8L73.5,273.1z M78.5,273.5L77,261.4l12.3-1.4l1.9,14.4L78.5,273.5z M103.6,275.4l-11.1-0.8L90.6,260h14.2 l4.1,14.1L103.6,275.4z M110.1,273.8l-4-13.8h11.5l4.1,11.1L110.1,273.8z M129.9,268.5l-6.9,2.3l-3.7-10.1l13,5.9L129.9,268.5z M265.9,114.3l7.9-4.5l0.9,19.6l-9.6,4.3c-0.1,0.1-0.3,0.2-0.3,0.3l-8.7,19.4l-8.8-3.8L265.9,114.3z M275.9,202.3l-9.1,22.3 l-6.4-7.1l9.6-20L275.9,202.3z M270.5,196.3l0.8-6.8l5,3.7l-0.3,7.6L270.5,196.3z M263.4,183.6l6.7,5l-0.8,6.8l-6.4-5.1l-16.1-13.4 l2.6-5.6L263.4,183.6z M249.9,170.1l2.9-6.2l10.9,2.4c0,0,0.1,0,0.1,0c0,0,0,0,0,0l6.4-0.3l0,21l-5.9-4.4L249.9,170.1z M262.1,191.2l6.9,5.6l-4,8.4L244.3,186l2.1-7.9L262.1,191.2z M264.4,206.4l-4.9,10.2l-7.4-8.2l-10.7-11l2.6-9.9L264.4,206.4z M259.7,218.8l6.5,7.2l-4.4,12.2l-8.8-8.2L259.7,218.8z M270.2,164.7l-6.4,0.3l-10.5-2.3l3.5-7.6l6.7,2.9c0.1,0,0.2,0.1,0.3,0.1 c0,0,0.1,0,0.1,0l6.3-1L270.2,164.7z M246.8,150.8l8.8,3.8l-3.6,7.8l-0.2,0l-7.8-5.1L246.8,150.8z M243.5,158.4l7.7,5.1 c0.1,0,0.1,0.1,0.2,0.1l0,0l-2.6,5.6l-7.3-6.4L243.5,158.4z M241,164l7.3,6.4l-2.6,5.6l-7.3-6L241,164z M236.3,192.2l1.9-20.8 l7,5.8l-5,19L236.3,192.2z M241.1,199l10,10.2l7.7,8.5l-6.7,11.3l-2.1-2l-10.3-11.3L241.1,199z M240.1,218.2l9,9.8l2.3,2.1L244,238 L240.1,218.2z M244.4,239.5l7.9-8.4l9.1,8.5l-6.5,21.8L244.4,239.5z M276,256.1l-6.3,12.6l-2.8,4.9l-11.2-10.6l6.8-22.7l14.7,6.3 L276,256.1z M277.4,245.2L263,239l4.4-12.2L279,232L277.4,245.2z M278.9,230.5l-11.1-5l8.4-20.7L278.9,230.5z M276.4,191.6 l-4.9-3.6l0-22.1l4.8-0.2L276.4,191.6z M276.3,164.4l-4.8,0.2l0-7.7l4.4-0.7L276.3,164.4z M275.9,154.8l-12,1.9l-6.5-2.9l8.6-19.2 l8.9-4L275.9,154.8z"></path> <path class="st3" d="M16.4,192.2l21.8-16.6l29.3-10.1l4.7,5.7l-27.4,9.8c-0.1,0-0.1,0.1-0.2,0.1l-11.3,10c-0.3,0.2-0.3,0.6-0.1,0.9 c0.1,0.1,0.3,0.2,0.5,0.2c0.2,0,0.3-0.1,0.4-0.2l11.2-9.9l27.7-9.9l6.6,8.1l-5.9,13.5c-0.1,0.3,0,0.7,0.3,0.9 c0.1,0,0.2,0.1,0.3,0.1c0.3,0,0.5-0.1,0.6-0.4l5.8-13.3l10.5,4.9c0,0,0.1,0,0.1,0l15.8,3.8l-3.9,8.5c-0.2,0.3,0,0.7,0.3,0.9 c0.1,0,0.2,0.1,0.3,0.1c0.2,0,0.5-0.1,0.6-0.4l4.1-8.8l19.2,4.6c0.1,0,0.1,0,0.2,0c0.3,0,0.6-0.2,0.6-0.5c0.1-0.3-0.1-0.7-0.5-0.8 l-18.9-4.6l2.4-5.2l13.5,5.7c0,0,0.1,0,0.1,0l11.3,2.8l0.8,6.2l-14.2,12.5c-0.3,0.2-0.3,0.6-0.1,0.9c0.1,0.1,0.3,0.2,0.5,0.2 c0.2,0,0.3-0.1,0.4-0.2l14.5-12.7c0.2-0.1,0.2-0.4,0.2-0.6l-0.8-6l16.3,4.1c0.1,0,0.1,0,0.2,0c0.1,0,0.2,0,0.2,0l8-3.1l2.3-0.9 l2.6,6.4c0.1,0.1,0.1,0.2,0.3,0.3l9.1,5.5c0.1,0.1,0.2,0.1,0.3,0.1c0.2,0,0.4-0.1,0.6-0.3c0.2-0.3,0.1-0.7-0.2-0.9l-8.9-5.4 l-2.5-6.2l7.1-2.9c0,0,0.1,0,0.1-0.1l2-1.4l7,14.2c0.1,0.2,0.3,0.4,0.6,0.4c0.1,0,0.2,0,0.3-0.1c0.3-0.2,0.5-0.5,0.3-0.9l-7.1-14.4 l4.3-3.1c0.1,0,0.1-0.1,0.1-0.1l10.9-14.5c0,0,0,0,0-0.1c0,0,0,0,0-0.1l17.5-37.3l21.3-33.6c0,0,0,0,0,0c0-0.1,0.1-0.1,0.1-0.2 l5.8-31.5c0,0,0,0,0,0c0-0.1,0-0.2,0-0.3c0,0,0,0,0-0.1c0-0.1,0-0.1-0.1-0.1l-9-11.2c0,0,0,0,0,0l0,0c0,0,0,0,0,0 c0-0.1-0.1-0.1-0.2-0.1l-14-7.9c-0.1-0.1-0.2-0.1-0.4-0.1l-18.8,1.7l4.8-10.1l23.9-21.3l7.5-1.8c0.3-0.1,0.6-0.4,0.5-0.8 c-0.1-0.4-0.4-0.6-0.8-0.5l-7.7,1.8c-0.1,0-0.2,0.1-0.3,0.1l-24.1,21.5c-0.1,0.1-0.1,0.1-0.2,0.2l-5,10.7l-6.2-2L192,32 c0-0.1,0.1-0.2,0.1-0.3V16.2c0-0.4-0.3-0.6-0.7-0.6c-0.4,0-0.7,0.3-0.7,0.6v15.4l-5.9,14.1l-11-3.6l3.6-12.2c0-0.1,0-0.1,0-0.2V0 h-1.3v18.8l-21.3-3.6L153.3,0H152c0,0,0,0,0,0.1l1.6,15l-19.5-3.3c-0.1,0-0.1,0-0.2,0l-33.5,3.4l0,0c0,0,0,0,0,0L73,18L70.3,0H69 c0,0,0,0.1,0,0.1l2.7,18l-7.8,0.8L62,0h-1.3c0,0,0,0,0,0.1l2,19.1l-11.2,3.2L49,14c-0.1-0.2-0.2-0.3-0.4-0.4l-20-7.9 c-0.2-0.1-0.5,0-0.6,0.1l-9.8,7.7c-0.1,0.1-0.2,0.2-0.2,0.3l-2.6,8.1c-0.1,0.3,0.1,0.7,0.4,0.8c0.3,0.1,0.7-0.1,0.8-0.4l2.6-7.9 l9.4-7.3l19.4,7.6l2.4,8l-22,6.3c-0.2,0.1-0.3,0.2-0.4,0.4c-0.1,0.2-0.1,0.4,0,0.5L33,41.6c0,0.1,0.1,0.1,0.1,0.2L44,53.6l-3.9,3.6 L31,44.7c-0.1-0.1-0.2-0.2-0.4-0.3l-16.8-3.2l1.1-16.5c0-0.4-0.2-0.7-0.6-0.7c-0.4,0-0.7,0.2-0.7,0.6l-1.1,16.5H0v1.3h12.4 l-0.7,10.3l0,6.6L0.1,57.5c0,0-0.1,0-0.1,0v1.3l11.7,1.8l0,12.2L0.1,70.7c0,0-0.1,0-0.1,0V72l11.7,2.1l0,6.3l-2.9-0.7 c-0.4-0.1-0.7,0.1-0.8,0.5c-0.1,0.3,0.1,0.7,0.5,0.8l3.2,0.8l0,8.3l5.7,44.9H0v1.3h17.5l2.3,18.5c0,0.2,0.1,0.4,0.3,0.5 c0.1,0.1,0.2,0.1,0.3,0.1c0.1,0,0.2,0,0.2,0l29-11.6L61.4,158l-28.1,11.4c0,0-0.1,0-0.1,0.1l-11.6,8.1c-0.3,0.2-0.4,0.6-0.2,0.9 c0.1,0.2,0.3,0.3,0.5,0.3c0.1,0,0.3,0,0.4-0.1l11.5-8l28.4-11.5l4.4,5.4l-28.9,10c-0.1,0-0.1,0.1-0.2,0.1L15.7,191L0,193.1v1.3 c0,0,0.1,0,0.1,0l16-2.1C16.2,192.3,16.3,192.3,16.4,192.2z M73.4,170.8l-4.7-5.8l11.8-6.5l3.5,6.1l-10,6.1L73.4,170.8z M48.8,75.3 l-3.5,4.3L44,73.8l3.1-3.9L48.8,75.3z M45.7,54l5.2-3.2l5.1,5.7l-8.2,10.4L45.7,54z M48.1,68.6l8.7-11.1l3.4,3.8L49.7,74.1 L48.1,68.6z M61.1,62.3L70,70L54.5,85.4l-4.3-9.8L61.1,62.3z M181.8,137.8l-12,2.4l-1.3-8.5v-28.8l16.6,11.6l-4.9,13.3 c0,0.1,0,0.2,0,0.3L181.8,137.8z M176.5,96.9l-4.5-2.8l8-17l4.3,1.7L176.5,96.9z M185.5,79.4l8.4,3.3l-11.6,17.8l-4.7-2.9 L185.5,79.4z M170.9,93.6l-4.2-1.2l7.2-17.1l5,1.4L170.9,93.6z M108.8,120.1l4.3,10.5l-10,5.7l-4.4-12.1L108.8,120.1z M98.2,122.9 l-5.4-15.1l9.4-3.8l6.1,14.8L98.2,122.9z M110,119.6l8.4-3.4c0.3-0.1,0.5-0.5,0.4-0.8c-0.1-0.3-0.5-0.5-0.8-0.4l-8.4,3.4l-6.1-14.8 l7.2-2.9l10.4-4.3l1.1,2.1l4.4,8.9l-6.9-1.3c-0.3-0.1-0.7,0.2-0.8,0.5s0.2,0.7,0.5,0.8l7.8,1.5l5.4,10.9l-7.3,4l-11.1,6.3 L110,119.6z M133.8,102.7l-5.9,4.5l-4.7-9.4l-1-2l7-2.9L133.8,102.7z M123.3,77.4l-2.4-5.2l2,0.6l16.2,7.3l2.3,6l-11.6,5.1 L123.3,77.4z M130.4,92.4l11.5-5.1l2.7,7l-9.7,7.5L130.4,92.4z M143.3,87.5l14.6,4l-1.7,5.9l-10.4-3.3L143.3,87.5z M145.4,95.3 l10.3,3.2l-4.3,10.8l-10.4,5.7l-5.7-12L145.4,95.3z M152.3,110.4c0.1-0.1,0.2-0.2,0.3-0.3L157,99l4.9,1.5l-7.2,20.3l-9.3,3.4 l-3.8-8L152.3,110.4z M157.4,97.7l1.7-5.9l5.7,1.6l-2.5,5.9L157.4,97.7z M158.3,90.2L142.7,86l-2.4-6.4l3.5-12.5l19.8,5.4 L158.3,90.2z M139.2,78.7l-15.8-7.1l-3.2-1L115,59.3l12.4,3l15,4.5L139.2,78.7z M118.5,70.1l-10.7-3.4l5.9-7.1L118.5,70.1z M119.2,71.7l2.8,6.3l6.5,13.8l-7,2.9L108,68.1L119.2,71.7z M128.5,108.4l5.9-4.5l5.6,11.8l-6.1,3.3L128.5,108.4z M140.5,116.9 l3.7,7.9l-6.4,2.4l-3.4-6.9L140.5,116.9z M137.4,129.3l2.1,4.7l-8.1,3.8l-30.6,16.7l-4.1-5l31.2-17.3l9.2-3.4L137.4,129.3z M138.6,128.7l-0.2-0.4l6.4-2.4l6.1,12.8l3.6,7.3l-6.7,3l-6.7-15l0,0l0,0L138.6,128.7z M152,138.1l-6-12.7l9.4-3.5 c0.2-0.1,0.3-0.2,0.4-0.4l7.4-20.7l4,1.3v29.6c0,0,0,0.1,0,0.1l1.4,8.6l-3.3,0.7c0,0-0.1,0-0.1,0l-9.5,4.2L152,138.1z M163.6,99.7 l2.5-6l4.2,1.1l-2.8,6L163.6,99.7z M165.4,92.1l-5.8-1.6l5.2-17.6l7.8,2.1L165.4,92.1z M163.9,71.3l-19.8-5.4l5-17.9l19.8,6.3 L163.9,71.3z M142.8,65.5l-15-4.5l-13.5-3.2l-7-15.4h24.2l16.2,5.2L142.8,65.5z M113.1,58.3l-6.4,7.7L95.2,50.5l10.8-7.7 L113.1,58.3z M120.4,95.2l-10.3,4.3l-7.3,2.9L89.2,85.7l9.6-9.3l7.7-8.3L120.4,95.2z M101.5,102.9l-9.3,3.7L88,99.7 c-0.2-0.3-0.5-0.4-0.8-0.3l-11.9,4.4l-1.2-3.6l14.1-13.7L101.5,102.9z M87.2,100.9l3.8,6.2l-12.9,5.1l-2.3-7.2L87.2,100.9z M91.6,108.3l5.4,15.1l-12,4.8l-6.5-14.7L91.6,108.3z M97.5,124.6l4.4,12.3l-10.4,5.9l-5.9-13.4L97.5,124.6z M125.9,124.8l7.3-4 l3.4,6.7l-9.2,3.4l-31.4,17.4l-3.7-4.6L125.9,124.8z M99.6,155.1l-0.3,0.1l-14.2,8.6l-3.5-6l14-7.7L99.6,155.1z M100,156.4l0.5-0.2 l2.3,2.8l-13.4,12.2l-3.6-6.2L100,156.4z M101.6,155.5l30.4-16.5l8-3.8l1.3,3l-7.6,3.1l-29.9,17L101.6,155.5z M134.3,142.3l7.6-3.1 l4.6,10.3l-7.1,3.2c-0.3,0.1-0.5,0.5-0.3,0.9c0.1,0.2,0.3,0.4,0.6,0.4c0.1,0,0.2,0,0.3-0.1l7.1-3.2l2.6,5.9l-8.3,3.1l-7.2,2.7 l-16,8.8l-13.5-12.1L134.3,142.3z M148.2,150.2l6.8-3l3.1,6.2l-7.2,2.7L148.2,150.2z M158.6,154.6l3.3,6.7l-8.4,1.2l-2.1-5.2 L158.6,154.6z M162.5,162.5l2.3,4.7l-9,1l-1.9-4.5L162.5,162.5z M163.9,162.3l8.3-1.2l1,5.2l-7,0.8L163.9,162.3z M163.3,161.1 l-3.4-7l10.2-3.9l1.9,9.6L163.3,161.1z M159.3,152.9l-3.1-6.3l9.4-4.2l3.2-0.6l1.1,7.1L159.3,152.9z M168.6,101.4l2.9-6.1l10.7,6.6 c0,0,0,0,0,0s0,0,0,0l6.1,3.8l-2.8,7.6L168.6,101.4z M183.4,101.2l11.7-18l6.2,2.5l-12.5,18.9L183.4,101.2z M194.4,81.5l-8.3-3.3 l8.1-18.7l4.1-0.5L194.4,81.5z M184.9,77.7l-4.3-1.7l7.4-15.8l4.6-0.6L184.9,77.7z M179.4,75.6l-5.1-1.4l6.7-16l5.7,1.8L179.4,75.6 z M173,73.9l-7.9-2.2l5-17l9.6,3.1L173,73.9z M169.3,53.1l-19.8-6.4l2.9-10.4l20,6.6L169.3,53.1z M148.2,46.3l-16.3-5.2 c-0.1,0-0.1,0-0.2,0h-24.9l-3.3-8.6c11.4-0.8,23.4-1.7,30.4-2.2l17.1,5.6L148.2,46.3z M105.5,41.5l-10.9,7.8l-5.4-15.7 c4-0.3,8.4-0.6,12.9-1L105.5,41.5z M105.8,67l-8,8.5l-9.5,9.3L71.9,69.9l9.9-9.8l12.4-8.9L105.8,67z M87.4,85.7l-14,13.6L55.3,86.4 L71,70.9L87.4,85.7z M72.9,100.5l1.2,3.8l-16.3,6.4l-2.7-22.8L72.9,100.5z M74.6,105.5l2.3,7.2l-18,7.2L58,112L74.6,105.5z M64.7,119C64.7,119,64.7,119.1,64.7,119l5.4,15.1l-8.3,3.3l-2.7-16.2L64.7,119z M65.9,118.7c0,0,0-0.1-0.1-0.1l11.5-4.6l6.5,14.7 l-12.5,5L65.9,118.7z M84.4,129.8l6,13.6l-12.9,7.3l-5.7-15.8L84.4,129.8z M91,144.5l3.7,4.6L81,156.7l-2.9-4.9L91,144.5z M80.4,179.4l-6.1-7.5l0.2-0.1c0,0,0.1,0,0.1-0.1l10-6.1l3.7,6.4L80.4,179.4z M107.6,188.7l-16-3.8l-10.1-4.7l7.9-7.3l6.8,4.6 c0,0,0.1,0,0.1,0.1l13.7,5.8L107.6,188.7z M110.7,182.1l-13.8-5.8l-6.5-4.3l13.2-12.1l13.6,12.3L110.7,182.1z M161.8,192.3l-7.8,3 l-16.6-4.1l-2.1-16.3c0-0.4-0.4-0.6-0.7-0.6c-0.4,0-0.6,0.4-0.6,0.7l2.1,15.8l-10.7-2.7l-13.3-5.6l6.3-9.6l9,8.1 c0.1,0.1,0.3,0.2,0.4,0.2c0.2,0,0.4-0.1,0.5-0.2c0.2-0.3,0.2-0.7,0-0.9l-8.8-8l15.5-8.6l7.1-2.6l8.3-3.2l2,4.9l-9.3,1.3 c-0.4,0.1-0.6,0.4-0.6,0.7c0,0.3,0.3,0.6,0.6,0.6c0,0,0.1,0,0.1,0l9.6-1.4l1.9,4.5l-7.9,0.9c-0.4,0-0.6,0.4-0.6,0.7 c0,0.3,0.3,0.6,0.6,0.6c0,0,0,0,0.1,0l8.3-0.9l9,21.7L161.8,192.3z M172.3,188l-7,2.9l-8.8-21.4l9.1-1l8.9,18L172.3,188z M179.5,182.9l-4,2.9l-8.6-17.4l15.6-1.8l7.3,2.6L179.5,182.9z M190.5,168.1l-7.7-2.8c-0.1,0-0.2,0-0.3,0l-8,0.9l-1-5.2l12.4-1.8 c0.4-0.1,0.6-0.4,0.6-0.7c-0.1-0.4-0.4-0.6-0.7-0.6l-12.5,1.8l-1.9-9.6l17.7,1.7c0.4,0,0.7-0.2,0.7-0.6c0-0.4-0.2-0.7-0.6-0.7 l-18-1.8l-1.1-7.2l26.1-5.3c0.4-0.1,0.6-0.4,0.5-0.8c-0.1-0.4-0.4-0.6-0.8-0.5l-12.8,2.6l-1.7-9.4l4.7-12.7l11.9,10.3l9.5,6.1 L190.5,168.1z M208.1,130.7l-9.3-6l-12.2-10.5l2.8-7.7l12.6,7.8c0.1,0.1,0.2,0.1,0.3,0.1c0.2,0,0.4-0.1,0.6-0.3 c0.2-0.3,0.1-0.7-0.2-0.9l-12.7-7.9l12.5-18.9l9.6,9.2c0.1,0.1,0.2,0.1,0.2,0.1l8.5,2.8c0.1,0,0.1,0,0.2,0h7.4L208.1,130.7z M229.1,97.2h-7.9l-8.3-2.7l-9.8-9.4l4.1-15.3l12.9,0l8.4-0.7c0,0,0.1,0,0.1,0l6.1-1.9L229.1,97.2z M234.4,66l-6.2,1.9l-8.2,0.7 l-12.7,0l-1.3-10.6l8.9-1.1l11.4-1L234.4,66z M212.4,47.9l12,6.8l-9.7,0.9l-8.9,1.1l-1-8.1L212.4,47.9z M206,69.1l-4.1,15.3 l-6.3-2.5l4-23.2l5-0.6L206,69.1z M193.1,49.6l10.4-0.9l1,8.2l-15.8,2L193.1,49.6z M185.6,47.3l6.2,2l-4.5,9.5l-5.7-1.8L185.6,47.3 z M184.3,46.9l-4.1,9.7l-9.8-3.1l3-10.1L184.3,46.9z M155.1,16.6l21.1,3.6v9.4l-3.6,12.1l-20-6.6l3.2-11.4c0-0.1,0-0.2,0-0.2 L155.1,16.6z M134,13l19.7,3.3l0.8,7.1l-3.1,11.2L134.2,29c-0.1,0-0.2,0-0.2,0c0,0-15.3,1.1-30.7,2.2c0,0-0.1,0-0.1,0l-1.9-14.8 L134,13z M100,16.5l1.9,14.8c-19.3,1.4-26.1,1.9-28.5,2.3l0.8-8.3c0-0.1,0-0.1,0-0.2l-0.9-5.9L100,16.5z M73.2,34.9 c1.6-0.2,7.2-0.7,14.7-1.2l5.7,16.4l-12.6,9c0,0-0.1,0-0.1,0.1l-9.9,9.9l-9-7.8l9.8-11.9c0.1-0.1,0.1-0.2,0.1-0.4L73.2,34.9z M64.8,27.5l-0.7-7.3l7.9-0.8l0.9,5.9l-2.2,23.5L61,60.4l-3.4-3.9l7-9c0.1-0.1,0.1-0.3,0.1-0.4L64.8,27.5z M62.8,20.4l0.7,7.1v19.4 l-6.7,8.6l-5-5.7l3.2-7.9c0-0.1,0-0.2,0-0.2V32c0-0.1,0-0.2,0-0.2l-3.1-8.2L62.8,20.4z M34.1,40.9l-4.9-10.8l21.4-6.1l3.1,8.2v9.5 l-3.2,7.9l-5.4,3.3L34.1,40.9z M44.5,55l2.2,13.4l-3,3.9l-3-13.8L44.5,55z M13,52.7l0.7-10.2l16.4,3.1l8.8,12.1l-16.5,3.2L13,59.5 L13,52.7z M13,60.8l9.3,1.4c0.1,0,0.1,0,0.2,0l17-3.3l3,14.2l-20.1,1.7L13,73.1L13,60.8z M13,74.4l9.3,1.7c0,0,0.1,0,0.1,0 c0,0,0,0,0.1,0l20.3-1.7l1.3,6.1l-22.8,2.4L13,80.7L13,74.4z M13,90l0-7.9l8.2,2c0.1,0,0.1,0,0.2,0c0,0,0,0,0.1,0L45,81.6 c0,0,0,0,0,0c0,0,0,0,0.1,0c0,0,0.1,0,0.1,0c0,0,0.1,0,0.1-0.1c0,0,0.1-0.1,0.1-0.1c0,0,0,0,0.1-0.1l3.9-4.7l4.4,10l2.9,24.5 l-26.5,10.4c-0.3,0.1-0.5,0.5-0.4,0.8c0.1,0.3,0.5,0.5,0.8,0.4l26.2-10.2l0.9,7.9l-36.5,14.6h-2.5L13,90z M21.1,153.7l-2.2-17.5 h2.5c0.1,0,0.2,0,0.2,0l36.3-14.5l2.7,16.2L21.1,153.7z M51,143.2l19.5-7.8l5.8,15.9l-4.2,2.4l-9.4,3.8L51,143.2z M63.5,158.6 l9.2-3.7l4.3-2.4l2.9,4.9L67.9,164L63.5,158.6z"></path> </g> <g> <polygon class="st4" points="214.4,95.8 220,69.2 220,69 213.9,44.3 191.4,31.8 153,23 137.1,19.6 80.9,23.4 36.9,34.2 24,49.6 18.5,88.9 18.5,88.9 20.5,154.7 58.1,198.7 59.6,197.4 22.5,153.9 20.5,89.1 26,50.4 38,36 81.2,25.4 137,21.6 152.6,25 190.6,33.7 212.1,45.7 218,69 212.6,95.1 197,123.4 160.9,133.7 136.1,146 107,164.8 106.8,164.9 85.8,192.9 87.4,194.1 108.2,166.4 137,147.8 161.5,135.6 198.4,125.1 "></polygon> <polygon class="st4" points="116.8,255.7 100,235.6 73.2,235.6 53.8,247.9 40.7,270.6 28.4,283.5 31.2,283.5 42.2,271.9 55.2,249.4 73.8,237.6 99,237.6 115.3,257 128.8,270.4 140.5,283.5 143.3,283.5 130.2,269.1 "></polygon> <path class="st4" d="M270,0h-2.1l4.6,24.5v50.9l-6.5,26.5l0,0.1l-0.4,10.5l-27.4,33.3l-9.6,17.5l-4.2,19.8l7,26.5l-1,11.8l-2.6,1.8 l-17.3,17.2l-13.9,25.9l-0.1,0.2v16.8h2v-16.3l13.7-25.4l17-16.8l1.8-1.3l7.1,22.5l3.9,18.8l2-0.4l-3.9-18.8l-7.4-23.2l19-13.6 l12.9-17.4l3.5-89.1l6.5-26.5l0-0.1V24.4L270,0z M262.5,190.7l-12.2,16.6L232.6,220l0.9-10.5l-7-26.4l3.9-18.9l9.4-17.1l25.6-31.2 L262.5,190.7z"></path> </g> <rect x="151.4" y="128.1" transform="matrix(0.9273 -0.3743 0.3743 0.9273 -37.2394 67.9162)" class="st5" width="9.8" height="3.4"></rect> <rect x="65.2" y="81.7" transform="matrix(0.709 -0.7052 0.7052 0.709 -40.2576 74.1305)" class="st5" width="8.9" height="8.2"></rect> <rect x="145.3" y="71.3" transform="matrix(0.9725 0.2331 -0.2331 0.9725 21.4183 -33.3142)" class="st5" width="12.7" height="5.4"></rect> <rect x="146.4" y="81.4" transform="matrix(0.9638 0.2666 -0.2666 0.9638 27.6873 -37.2643)" class="st5" width="9.4" height="3.9"></rect> <rect x="139.3" y="47.3" transform="matrix(0.9577 0.2879 -0.2879 0.9577 20.5754 -38.6432)" class="st5" width="4.8" height="6.6"></rect> <rect x="180.5" y="4.6" class="st5" width="5.3" height="20.5"></rect> <rect x="210.3" y="72.8" transform="matrix(0.9445 0.3286 -0.3286 0.9445 37.7623 -65.4156)" class="st5" width="4.3" height="12.5"></rect> <rect x="84" y="113.9" transform="matrix(0.9154 -0.4026 0.4026 0.9154 -40.2943 45.1231)" class="st5" width="6.3" height="8.9"></rect> <rect x="69.7" y="120.8" transform="matrix(0.9368 -0.3498 0.3498 0.9368 -38.1994 33.9049)" class="st5" width="10.1" height="3.8"></rect> <rect x="45.9" y="146.4" transform="matrix(0.8516 -0.5241 0.5241 0.8516 -72.9309 48.6223)" class="st5" width="7" height="13.5"></rect> <rect x="34.5" y="151.8" transform="matrix(0.8811 -0.4729 0.4729 0.8811 -70.4311 36.3941)" class="st5" width="5.2" height="12.8"></rect> <rect x="11.1" y="169.2" transform="matrix(0.7906 -0.6123 0.6123 0.7906 -100.6924 48.3675)" class="st5" width="18.5" height="4.5"></rect> <rect x="29.2" y="16.6" transform="matrix(0.9464 -0.323 0.323 0.9464 -4.6116 12.6759)" class="st5" width="13.3" height="7.3"></rect> <rect x="60.5" y="251.3" class="st5" width="4.3" height="7.5"></rect> <rect x="67.9" y="253.3" class="st5" width="4.6" height="3.6"></rect> <rect x="252.9" y="166.5" transform="matrix(0.9432 0.3323 -0.3323 0.9432 70.8143 -75.6719)" class="st5" width="7.5" height="5.5"></rect> <rect x="255.6" y="133.5" transform="matrix(0.9123 0.4094 -0.4094 0.9123 79.6849 -93.2602)" class="st5" width="4" height="12"></rect> <rect x="245.7" y="216" transform="matrix(0.7365 0.6765 -0.6765 0.7365 213.0966 -110.6203)" class="st5" width="5.6" height="4.3"></rect> <rect x="264.4" y="246.1" transform="matrix(0.9365 0.3507 -0.3507 0.9365 104.8737 -77.4449)" class="st5" width="3.8" height="9.4"></rect> <rect x="231" y="170.8" transform="matrix(0.9761 0.2175 -0.2175 0.9761 44.0922 -46.4907)" class="st5" width="4.5" height="12.5"></rect> <rect x="75.8" y="38" class="st5" width="2.8" height="5.4"></rect> <rect x="83.5" y="37" transform="matrix(0.953 -0.3031 0.3031 0.953 -9.2485 28.0736)" class="st5" width="4.7" height="13.7"></rect> <rect x="138" y="180.8" class="st5" width="9.9" height="3.1"></rect> <rect x="172" y="170.8" transform="matrix(0.943 -0.3327 0.3327 0.943 -47.664 67.8804)" class="st5" width="4.7" height="4.7"></rect> <rect x="164.9" y="179.7" transform="matrix(0.9203 -0.3911 0.3911 0.9203 -57.7353 80.075)" class="st5" width="5.7" height="4.2"></rect> <path class="st6" d="M228.2,67.9"></path> <path class="st6" d="M274.4,73.1l-44.6-6.5L221.5,0h-3.1l8.5,68l-7.8,29.5l-21.4,26.9L179.6,165l-0.2,0.4l4,32.2l-10.7,10.7 l-7.1-5.3l-7.8-11.8L121,114.7l3.5-34.9L137,20.6L133,0h-3.1l4.1,20.6l-12.4,58.6l-3,30.4l-17.8-35.6L66.5,45l-0.2-0.1L14.8,21.7 L0,22l0,3l14.2-0.3l50.5,22.7L98.3,76l19.9,39.7l15.7,32.6l-0.3,27.7l-7,5.7v12.4l-15.6,5.1l-24.3-5.5l-28.5,1.6l-40.5,16.1L0,230.4 v4.6l19.4-21.2l37-14.7L71.7,236l5.9,47.5h3l-6-48.3L59.2,198l27.1-1.5l23.9,5.4l14.2,13.1l19.2,14.5l17.1-5.2l12.2-12.1l57,42.9 l10.1,11l4.3,17.3h3.1l-4.7-18.7L232.1,253l-57-42.9l11.5-11.4l-4-32.8l17.8-40l21.6-27.1l7.8-29.2l43.8,6.4l10.1,6v-3.5L274.4,73.1 z M136.7,154.3l10,20.8h-10.2L136.7,154.3z M129.5,183l6-4.9h12.6l7,14.5l6,9.1l-31.6-7.8V183z M159.2,221.7l-14.9,4.5l-17.8-13.4 l-12.6-11.6l14.2-4.6l35.8,8.8l6.7,5L159.2,221.7z"></path> </svg> 