<?xml version="1.0" encoding="utf-8"?>
<!-- Generator: Adobe Illustrator 25.2.2, SVG Export Plug-In . SVG Version: 6.00 Build 0)  -->
<svg version="1.1" id="Ebene_1" xmlns="http://www.w3.org/2000/svg" xmlns:xlink="http://www.w3.org/1999/xlink" x="0px" y="0px"
	 viewBox="0 0 146 220" style="enable-background:new 0 0 146 220;" xml:space="preserve">
<style type="text/css">
	.st0{fill:#E0222A;}
</style>
<g>
	<path class="st0" d="M3.5,34.25c0-17.4,14.1-31.6,31.6-31.6c17.4,0,31.6,14.1,31.6,31.6c0,17.4-14.1,31.6-31.6,31.6
		C17.6,65.75,3.5,51.65,3.5,34.25"/>
	<path class="st0" d="M3.5,185.75c0-17.4,14.1-31.6,31.6-31.6c17.4,0,31.6,14.1,31.6,31.6c0,17.4-14.1,31.6-31.6,31.6
		C17.6,217.35,3.5,203.25,3.5,185.75"/>
	<path class="st0" d="M96.2,110.05c0-8.1,6.5-14.6,14.6-14.6s14.6,6.5,14.6,14.6s-6.5,14.6-14.6,14.6
		C102.8,124.65,96.2,118.05,96.2,110.05"/>
	<path class="st0" d="M79.3,185.75c0-17.4,14.1-31.6,31.6-31.6s31.6,14.1,31.6,31.6c0,17.4-14.1,31.6-31.6,31.6
		S79.3,203.25,79.3,185.75"/>
	<path class="st0" d="M20.4,110.05c0-8.1,6.5-14.6,14.6-14.6s14.6,6.5,14.6,14.6s-6.5,14.6-14.6,14.6
		C27,124.65,20.4,118.05,20.4,110.05"/>
	<path class="st0" d="M96.2,34.25c0-8.1,6.5-14.6,14.6-14.6s14.6,6.5,14.6,14.6s-6.5,14.6-14.6,14.6
		C102.8,48.85,96.2,42.25,96.2,34.25"/>
</g>
</svg>
