<?xml version="1.0" encoding="utf-8"?>
<!-- Generator: Adobe Illustrator 25.2.2, SVG Export Plug-In . SVG Version: 6.00 Build 0)  -->
<svg version="1.1" id="Ebene_1" xmlns="http://www.w3.org/2000/svg" xmlns:xlink="http://www.w3.org/1999/xlink" x="0px" y="0px"
	 viewBox="0 0 908.8 161" style="enable-background:new 0 0 908.8 161;" xml:space="preserve">
<style type="text/css">
	.st0{fill:none;}
	.st1{fill:#3A3A39;}
	.st2{fill:#E0222A;}
</style>
<rect x="243" y="110.8" class="st0" width="419" height="50.2"/>
<g>
	<path class="st1" d="M0,62.6h5.4V30.3H0V24h19v6.2h-5.4v12.9H34V30.2h-5.4V24h19v6.2h-5.4v32.3h5.4v6.2h-19v-6.2H34V49.7H13.6v12.8
		H19v6.2H0V62.6z"/>
	<path class="st1" d="M61.2,30.3h-5.4V24h19v6.2h-5.4v21.7c0,2.5,0.6,4.8,1.5,6.4c1.6,2.5,4.7,4,8.4,4c3.7,0,6.7-1.4,8.4-4
		c1-1.7,1.5-3.8,1.5-6.4V30.3h-5.4V24h19v6.2h-5.4v21.7c0,4.3-1.2,8.4-3.3,11.2c-3.3,4.3-8.9,6.4-14.9,6.4c-6.4,0-11.8-2.3-14.9-6.3
		C62,60.3,61,56.4,61,51.9V30.3L61.2,30.3L61.2,30.3z"/>
	<path class="st1" d="M110.3,62.6h5l2.5-32.3h-5.1V24h13.8l9.5,25.3c0.7,2.2,1,3.7,1,3.7h0.1c0,0,0.3-1.5,1.1-3.7l9.4-25.3h13.8v6.2
		h-5.1l2.5,32.3h5v6.2h-17.4v-6.2h4.7l-1.6-22.6c-0.1-1.6,0.2-4.2,0.2-4.2h-0.2c0,0-0.5,2.5-1,4l-8.1,20.6h-6.7l-8.1-20.6
		c-0.5-1.5-1-4-1-4h-0.2c0,0,0.3,2.6,0.2,4.2L123,62.5h4.8v6.2h-17.5V62.6z"/>
	<path class="st1" d="M171.3,62.6h5l2.5-32.3h-5.1V24h13.8l9.5,25.3c0.7,2.2,1,3.7,1,3.7h0.1c0,0,0.3-1.5,1.1-3.7l9.4-25.3h13.8v6.2
		h-5.1l2.5,32.3h5v6.2h-17.4v-6.2h4.7l-1.6-22.6c-0.1-1.6,0.2-4.2,0.2-4.2h-0.2c0,0-0.5,2.5-1,4l-8.1,20.6h-6.7l-8.1-20.6
		c-0.5-1.5-1-4-1-4h-0.2c0,0,0.3,2.6,0.2,4.2L184,62.5h4.8v6.2h-17.5L171.3,62.6L171.3,62.6z"/>
	<path class="st1" d="M233.2,62.6h5.4V30.3h-5.4V24h33.2v11.5h-7.1v-4.9h-12.5v12.3h14.7v6.6h-14.7v12.6h13.5v-5h7.1v11.7h-34.1
		L233.2,62.6L233.2,62.6z"/>
	<path class="st1" d="M276.8,62.6h5.4V30.7h-5.4V24h19v6.6h-5.4v31.5h13.2v-6.9h7.1v13.5h-33.9L276.8,62.6L276.8,62.6z"/>
	<path class="st1" d="M324.6,62.6h5.4V30.7h-8.4v6.7h-7V24h39.2v13.4h-7v-6.7h-8.5v31.9h5.4v6.2h-19v-6.2L324.6,62.6L324.6,62.6z"/>
	<path class="st2" d="M384.8,30.3h-5.4V24h19v6.2H393v21.7c0,2.5,0.6,4.8,1.5,6.4c1.6,2.5,4.7,4,8.4,4c3.7,0,6.7-1.4,8.4-4
		c1-1.7,1.5-3.8,1.5-6.4V30.3h-5.4V24h19v6.2H421v21.7c0,4.3-1.2,8.4-3.3,11.2c-3.3,4.3-8.9,6.4-14.9,6.4c-6.4,0-11.8-2.3-14.9-6.3
		c-2.3-2.9-3.3-6.8-3.3-11.3V30.3L384.8,30.3L384.8,30.3z"/>
	<path class="st2" d="M434.8,62.6h5.4V30.3h-5.4V24h13.6l18.8,28.8c0.9,1.4,1.6,3.8,1.6,3.8h0.2c0,0-0.3-2.6-0.3-4.2V30.3h-5.5V24
		h19.2v6.2H477v38.5h-8.3L449.9,40c-0.9-1.5-1.6-3.8-1.6-3.8H448c0,0,0.4,2.5,0.3,4.2v22.1h5.5v6.2h-19.2v-6.1L434.8,62.6
		L434.8,62.6z"/>
	<path class="st2" d="M491.3,62.6h5.4V30.3h-5.4V24h19.3c3.6,0,6.4,0.2,9.3,1.1c8.7,2.6,14.5,10.3,14.5,21.3
		c0,10.6-5.4,18.2-13.9,21c-3,1.1-6.2,1.3-9.9,1.3h-19.4v-6.1L491.3,62.6L491.3,62.6z M510.3,62.1c2.8,0,5.1-0.3,7.3-1.1
		c5.1-2.1,8.3-7.3,8.3-14.6c0-7.6-3.4-12.7-8.6-14.7c-2.3-0.9-4.3-1-7-1h-5.4v31.5L510.3,62.1L510.3,62.1z"/>
	<path class="st1" d="M562.6,62.6h5.5V30.3h-5.5V24h22.1c2.7,0,5.5,0.2,7.8,1.1c5,2,8.2,7,8.2,13.2c0,6.4-3.4,11.8-8.8,13.6
		c-2.1,0.7-4.5,0.9-7.1,0.9h-8.2v9.7h5.6v6.2h-19.6V62.6z M583.8,46.3c1.9,0,3.4-0.3,4.7-0.9c2.5-1.2,3.8-3.7,3.8-7
		c0-3.1-1.2-5.5-3.4-6.7c-1.3-0.8-2.9-1.1-5-1.1h-7.2v15.6h7.1L583.8,46.3L583.8,46.3z"/>
	<path class="st1" d="M605.7,62.6h4.2L623.7,24h9.7l13.8,38.6h4.2v6.2h-17.3v-6.2h4.5l-2.9-8.4h-14.5l-2.9,8.4h4.5v6.2h-17.3v-6.2
		H605.7z M633.9,47.8l-4.3-12.7c-0.7-2.2-0.8-3.9-0.8-3.9h-0.2c0,0-0.2,1.7-0.8,3.9l-4.4,12.7H633.9z"/>
	<path class="st1" d="M660.7,62.6h5.5V30.3h-5.5V24H681c3.4,0,6.2,0.2,8.8,0.9c5.1,1.6,8.5,5.7,8.5,12c0,6.2-3.4,10.6-8.7,12.4v0.1
		c0,0,1.4,0.7,2.3,2.3l5.3,9.3c0.6,1.1,1.6,1.4,3.1,1.4h1.5v6.2h-5.4c-3.8,0-5-0.8-6.4-3.3l-6.6-11.5c-1-1.7-1.8-2.3-4.5-2.3h-4.2
		v11h5.3v6.2h-19.3L660.7,62.6L660.7,62.6z M682.3,45c4.5,0,7.4-2.6,7.4-7.4c0-2.9-1.1-5.2-3.6-6.2c-1.3-0.6-3-0.8-5.2-0.8h-6.2V45
		H682.3z"/>
	<path class="st1" d="M720.6,62.6h5.5V30.7h-8.7v6.7h-7.2V24h40.4v13.4h-7.2v-6.7h-8.8v31.9h5.6v6.2h-19.6V62.6z"/>
	<path class="st1" d="M760.8,62.6h5.5V30.3h-5.5V24h14l19.4,28.8c0.9,1.4,1.7,3.8,1.7,3.8h0.2c0,0-0.3-2.6-0.3-4.2V30.3h-5.7V24
		h19.7v6.2h-5.5v38.5h-8.5L776.4,40c-0.9-1.5-1.7-3.8-1.7-3.8h-0.3c0,0,0.4,2.5,0.3,4.2v22.1h5.7v6.2h-19.7L760.8,62.6L760.8,62.6z"
		/>
	<path class="st1" d="M820.9,62.6h5.5V30.3h-5.5V24h34.2v11.5h-7.3v-4.9H835v12.3h15.2v6.6H835v12.6h13.9v-5h7.3v11.7H821
		L820.9,62.6L820.9,62.6z"/>
	<path class="st1" d="M867.7,62.6h5.5V30.3h-5.5V24H888c3.4,0,6.2,0.2,8.8,0.9c5.1,1.6,8.5,5.7,8.5,12c0,6.2-3.4,10.6-8.7,12.4v0.1
		c0,0,1.4,0.7,2.3,2.3l5.3,9.3c0.6,1.1,1.6,1.4,3.1,1.4h1.5v6.2h-5.4c-3.8,0-5-0.8-6.4-3.3l-6.6-11.5c-1-1.7-1.8-2.3-4.5-2.3h-4.2
		v11h5.3v6.2h-19.3L867.7,62.6L867.7,62.6z M889.3,45c4.5,0,7.4-2.6,7.4-7.4c0-2.9-1.1-5.2-3.6-6.2c-1.3-0.6-3-0.8-5.2-0.8h-6.2V45
		H889.3z"/>
</g>
<g>
	<path class="st1" d="M307.1,114.7c-1,0.2-1.7,0.4-2.3,0.6c-0.6,0.2-0.9,0.4-1,0.8l-8,23.4c-0.1,0.3-0.3,0.6-0.6,0.8
		c-0.3,0.2-0.6,0.4-0.9,0.6s-0.6,0.3-0.9,0.4s-0.6,0.2-0.8,0.2l-3.9-20.5l-8.5,18.6c-0.1,0.3-0.4,0.6-0.7,0.8
		c-0.3,0.2-0.6,0.4-0.9,0.6s-0.7,0.3-1,0.4s-0.6,0.2-0.8,0.2l-1.7-25.1c0-0.4-0.2-0.7-0.6-0.9c-0.4-0.2-1-0.4-2-0.6l0.2-1.1h9.1
		l-0.2,1.1c-0.7,0.1-1.2,0.2-1.6,0.3c-0.4,0.1-0.7,0.2-0.9,0.4c-0.2,0.1-0.3,0.3-0.4,0.4c-0.1,0.2-0.1,0.3-0.1,0.5l1.3,18.1
		l9.4-20.7h1.5l4.1,20.7l6.2-18.2c0.1-0.2,0-0.3-0.1-0.5c-0.1-0.1-0.3-0.2-0.6-0.3s-0.6-0.2-1-0.3s-0.8-0.2-1.3-0.3l0.2-1.1h8.7
		L307.1,114.7z"/>
	<path class="st1" d="M322.1,124.3c0,0.4,0,0.8-0.1,1.3s-0.3,0.9-0.6,1.4c-0.3,0.5-0.7,1-1.3,1.5s-1.3,1.1-2.1,1.6s-2,1.1-3.3,1.7
		s-2.8,1.2-4.6,1.8c0.1,0.8,0.3,1.5,0.5,2.1s0.5,1.2,0.9,1.6c0.3,0.4,0.7,0.8,1.1,1s0.8,0.4,1.2,0.4c0.3,0,0.7,0,1.1-0.1
		s1-0.3,1.6-0.5s1.2-0.6,2-1c0.7-0.4,1.6-1,2.4-1.7c0.1,0,0.2,0.1,0.3,0.2c0.1,0.1,0.2,0.2,0.2,0.3c0.1,0.1,0.1,0.2,0.2,0.3l0.1,0.2
		c-1.2,1-2.3,1.9-3.2,2.5c-0.9,0.7-1.8,1.2-2.6,1.5c-0.8,0.4-1.5,0.6-2.1,0.8c-0.6,0.1-1.2,0.2-1.8,0.2c-0.5,0-1.1-0.1-1.8-0.4
		s-1.3-0.7-1.9-1.3c-0.6-0.6-1.1-1.3-1.5-2.3c-0.4-0.9-0.6-2.1-0.6-3.5c0-1.1,0.1-2.2,0.4-3.3c0.3-1.1,0.7-2.1,1.2-3.1
		s1.2-1.9,1.9-2.8s1.6-1.7,2.6-2.4c0.3-0.3,0.7-0.5,1.2-0.8s0.9-0.5,1.4-0.7s1-0.4,1.5-0.5s1-0.2,1.5-0.2c0.7,0,1.3,0.1,1.8,0.3
		c0.5,0.2,0.9,0.5,1.3,0.9s0.6,0.8,0.8,1.2S322.1,123.8,322.1,124.3z M313.7,124.1c-0.4,0.4-0.9,0.9-1.3,1.5s-0.8,1.2-1.1,1.8
		c-0.3,0.7-0.6,1.3-0.8,2.1c-0.2,0.7-0.3,1.5-0.4,2.2c1.8-0.7,3.2-1.3,4.2-1.9s1.8-1.1,2.4-1.6c0.5-0.5,0.9-1,1-1.5s0.2-1,0.2-1.5
		c0-0.4-0.1-0.7-0.2-1s-0.2-0.5-0.4-0.7s-0.4-0.3-0.6-0.4s-0.5-0.1-0.7-0.1s-0.6,0.1-1.1,0.3C314.5,123.4,314.1,123.7,313.7,124.1z"
		/>
	<path class="st1" d="M341.2,122.3c-0.2,0.2-0.4,0.5-0.6,0.9s-0.5,0.8-0.7,1.1s-0.5,0.7-0.7,1s-0.4,0.4-0.6,0.4
		c-0.3,0-0.5-0.1-0.7-0.2c-0.2-0.2-0.4-0.3-0.6-0.5s-0.4-0.4-0.6-0.5c-0.2-0.2-0.4-0.2-0.6-0.2c-0.4,0-0.8,0.2-1.3,0.7
		s-1,1.1-1.5,1.8c-0.5,0.8-1,1.6-1.4,2.6c-0.5,1-0.8,2-1.1,3c-0.2,0.5-0.3,1.1-0.4,1.8s-0.2,1.3-0.3,1.9c-0.1,0.7-0.2,1.3-0.2,1.9
		s-0.1,1.2,0,1.8c-0.2,0.1-0.5,0.2-0.8,0.4c-0.3,0.2-0.7,0.3-1.1,0.5s-0.7,0.3-1.1,0.5s-0.6,0.3-0.8,0.4l-0.8-0.7
		c0.2-1,0.4-2.1,0.6-3.1s0.4-2.1,0.6-3.2s0.3-2.1,0.5-3c0.2-1,0.3-1.9,0.4-2.8s0.2-1.6,0.3-2.3c0.1-0.7,0.1-1.2,0.1-1.7
		c0-0.3,0-0.6-0.1-0.8c-0.1-0.2-0.1-0.3-0.2-0.4s-0.2-0.2-0.3-0.2c-0.1,0-0.2,0-0.3,0c-0.1,0-0.3,0-0.6,0.1c-0.2,0-0.5,0.1-0.7,0.2
		c-0.3,0.1-0.6,0.2-0.9,0.3l-0.3-1c0.6-0.3,1.3-0.5,2-0.8s1.3-0.5,2-0.7c0.6-0.2,1.2-0.4,1.6-0.5c0.5-0.1,0.8-0.2,1-0.2
		s0.4,0,0.5,0.1s0.2,0.2,0.3,0.4c0.1,0.2,0.1,0.4,0.1,0.7s0,0.7,0,1.2c0,0.2,0,0.4-0.1,0.7c0,0.3-0.1,0.7-0.1,1.1
		c-0.1,0.4-0.1,0.8-0.2,1.2c-0.1,0.4-0.1,0.7-0.2,1c0.7-1.3,1.4-2.4,2-3.2s1.2-1.5,1.8-2c0.6-0.5,1.1-0.8,1.6-1s1-0.3,1.5-0.3
		c0.3,0,0.5,0.1,0.8,0.2s0.5,0.3,0.8,0.5s0.5,0.4,0.8,0.6S340.8,122.2,341.2,122.3z"/>
	<path class="st1" d="M360.3,127.5c0,1.5-0.3,3.1-0.8,4.6s-1.3,3-2.4,4.5c-0.5,0.6-1.1,1.3-1.7,1.9s-1.3,1.1-2,1.6s-1.5,0.8-2.4,1.1
		c-0.8,0.3-1.7,0.4-2.7,0.4c-0.3,0-0.7-0.1-1.1-0.2s-0.8-0.4-1.2-0.6c-0.4-0.3-0.8-0.6-1.2-1c-0.4-0.4-0.8-0.8-1.1-1.2
		c-0.3-0.4-0.6-0.9-0.8-1.3c-0.2-0.5-0.3-0.9-0.3-1.4c0-0.4,0-1,0.1-1.7s0.2-1.7,0.4-2.7c0.1-1,0.3-2.2,0.5-3.4s0.4-2.5,0.6-3.8
		s0.4-2.5,0.6-3.8c0.2-1.2,0.4-2.4,0.5-3.5s0.3-2,0.4-2.9s0.1-1.5,0.1-1.9c0-0.3,0-0.6-0.1-0.8c-0.1-0.2-0.2-0.3-0.3-0.4
		c-0.1-0.1-0.2-0.2-0.4-0.2c-0.1,0-0.3,0-0.4,0s-0.3,0-0.6,0.1c-0.2,0.1-0.5,0.1-0.7,0.2c-0.3,0.1-0.6,0.2-0.9,0.3l-0.3-1.1
		c0.6-0.3,1.3-0.6,2-0.8s1.4-0.5,2-0.7s1.2-0.4,1.7-0.5s0.8-0.2,1.1-0.2c0.4,0,0.7,0.1,0.9,0.4c0.2,0.3,0.2,0.7,0.2,1.4
		c0,0.4,0,1-0.1,1.7s-0.2,1.5-0.3,2.4s-0.3,1.9-0.4,2.9c-0.2,1-0.3,2.1-0.5,3.2s-0.4,2.2-0.5,3.3c-0.2,1.1-0.4,2.2-0.5,3.3
		c0.8-1.1,1.5-2.1,2.3-2.8c0.8-0.8,1.5-1.4,2.2-1.8c0.7-0.5,1.4-0.8,2-1s1.1-0.3,1.6-0.3c0.6,0,1.2,0.2,1.7,0.5s1,0.8,1.4,1.3
		c0.4,0.6,0.7,1.3,0.9,2.2S360.4,126.4,360.3,127.5z M353.7,123.7c-0.3,0-0.6,0.2-1.1,0.5s-1,0.7-1.6,1.3c-0.6,0.6-1.2,1.3-1.8,2.1
		c-0.6,0.8-1.2,1.7-1.8,2.7c-0.1,1-0.3,1.9-0.4,2.7c-0.1,0.8-0.1,1.4-0.1,1.9c0,0.4,0.1,0.8,0.3,1.2s0.5,0.8,0.9,1.2
		s0.8,0.6,1.2,0.9c0.5,0.2,0.9,0.3,1.3,0.3c0.5,0,0.9-0.1,1.3-0.2c0.4-0.2,0.8-0.4,1.1-0.6c0.3-0.3,0.7-0.5,1-0.9
		c0.3-0.3,0.5-0.7,0.8-1c0.3-0.5,0.6-1,0.8-1.5c0.2-0.5,0.4-1.1,0.5-1.7s0.2-1.1,0.3-1.7c0-0.5,0.1-1.1,0.1-1.5
		c0-0.9-0.1-1.7-0.2-2.4c-0.2-0.7-0.4-1.3-0.6-1.7c-0.3-0.5-0.6-0.8-0.9-1.1C354.4,123.8,354,123.7,353.7,123.7z"/>
	<path class="st1" d="M379,124.3c0,0.4,0,0.8-0.1,1.3s-0.3,0.9-0.6,1.4c-0.3,0.5-0.7,1-1.3,1.5s-1.3,1.1-2.1,1.6s-2,1.1-3.3,1.7
		s-2.8,1.2-4.6,1.8c0.1,0.8,0.3,1.5,0.5,2.1s0.5,1.2,0.9,1.6c0.3,0.4,0.7,0.8,1.1,1s0.8,0.4,1.2,0.4c0.3,0,0.7,0,1.1-0.1
		s1-0.3,1.6-0.5s1.2-0.6,2-1c0.7-0.4,1.6-1,2.4-1.7c0.1,0,0.2,0.1,0.3,0.2c0.1,0.1,0.2,0.2,0.2,0.3c0.1,0.1,0.1,0.2,0.2,0.3l0.1,0.2
		c-1.2,1-2.3,1.9-3.2,2.5c-0.9,0.7-1.8,1.2-2.6,1.5c-0.8,0.4-1.5,0.6-2.1,0.8c-0.6,0.1-1.2,0.2-1.8,0.2c-0.5,0-1.1-0.1-1.8-0.4
		s-1.3-0.7-1.9-1.3c-0.6-0.6-1.1-1.3-1.5-2.3c-0.4-0.9-0.6-2.1-0.6-3.5c0-1.1,0.1-2.2,0.4-3.3c0.3-1.1,0.7-2.1,1.2-3.1
		s1.2-1.9,1.9-2.8s1.6-1.7,2.6-2.4c0.3-0.3,0.7-0.5,1.2-0.8s0.9-0.5,1.4-0.7s1-0.4,1.5-0.5s1-0.2,1.5-0.2c0.7,0,1.3,0.1,1.8,0.3
		c0.5,0.2,0.9,0.5,1.3,0.9s0.6,0.8,0.8,1.2S379,123.8,379,124.3z M370.5,124.1c-0.4,0.4-0.9,0.9-1.3,1.5s-0.8,1.2-1.1,1.8
		c-0.3,0.7-0.6,1.3-0.8,2.1c-0.2,0.7-0.3,1.5-0.4,2.2c1.8-0.7,3.2-1.3,4.2-1.9s1.8-1.1,2.4-1.6c0.5-0.5,0.9-1,1-1.5s0.2-1,0.2-1.5
		c0-0.4-0.1-0.7-0.2-1s-0.2-0.5-0.4-0.7s-0.4-0.3-0.6-0.4s-0.5-0.1-0.7-0.1s-0.6,0.1-1.1,0.3C371.4,123.4,371,123.7,370.5,124.1z"/>
	<path class="st1" d="M400.6,138.9c-1.3,0.8-2.4,1.5-3.2,1.9c-0.9,0.5-1.6,0.7-2.1,0.7c-0.3,0-0.5-0.1-0.8-0.3s-0.5-0.5-0.7-0.9
		s-0.4-1.1-0.6-1.9s-0.2-1.8-0.3-3.1c-0.4,0.7-0.9,1.4-1.4,2.1s-1.1,1.4-1.8,2c-0.6,0.6-1.3,1.1-1.9,1.5c-0.7,0.4-1.3,0.6-1.9,0.6
		c-0.5,0-1-0.1-1.6-0.4s-1.1-0.7-1.6-1.3c-0.5-0.6-0.9-1.4-1.2-2.3c-0.3-0.9-0.5-2.1-0.5-3.4c0-1.1,0.1-2.2,0.4-3.3
		c0.3-1.1,0.7-2.1,1.3-3.1c0.6-1,1.2-1.9,2-2.8s1.7-1.6,2.8-2.3c0.4-0.3,0.8-0.5,1.3-0.8c0.5-0.2,1-0.5,1.5-0.6
		c0.5-0.2,1.1-0.3,1.6-0.5c0.5-0.1,1.1-0.2,1.6-0.2c0.3,0,0.6,0,0.9,0.1s0.6,0.2,0.9,0.3s0.6,0.3,0.8,0.4s0.5,0.3,0.8,0.4
		c0.4-0.2,0.8-0.5,1.2-0.7c0.4-0.2,0.8-0.4,1.2-0.6l0.5,1c-0.3,0.2-0.5,0.4-0.6,0.5c-0.2,0.2-0.3,0.3-0.4,0.5s-0.2,0.5-0.3,0.8
		c-0.1,0.3-0.2,0.7-0.3,1.2c-0.2,1-0.4,2.1-0.6,3.1s-0.4,2-0.5,2.9s-0.2,1.7-0.3,2.4c-0.1,0.7-0.1,1.2-0.1,1.5
		c0,1.4,0.1,2.5,0.3,3.1c0.2,0.6,0.5,0.9,0.8,0.9s0.6,0,1-0.1s0.9-0.2,1.5-0.5L400.6,138.9z M393.3,131.7c0.1-0.6,0.2-1.3,0.3-2
		c0.1-0.7,0.2-1.4,0.4-2c0.1-0.7,0.2-1.3,0.3-1.8c0.1-0.6,0.2-1,0.3-1.4c-0.2-0.2-0.5-0.4-0.7-0.5c-0.3-0.2-0.5-0.3-0.8-0.5
		s-0.6-0.3-0.9-0.4s-0.6-0.1-0.9-0.1c-0.7,0-1.3,0.2-1.9,0.5s-1.1,0.7-1.6,1.2s-0.9,1.1-1.3,1.8c-0.4,0.7-0.7,1.3-0.9,2
		c-0.3,0.7-0.5,1.4-0.6,2.1s-0.2,1.3-0.2,1.9c0,0.9,0.1,1.7,0.2,2.4c0.1,0.7,0.3,1.3,0.6,1.8c0.3,0.5,0.6,0.9,0.9,1.1
		c0.3,0.3,0.7,0.4,1.1,0.4c0.3,0,0.7-0.2,1.2-0.5c0.5-0.4,0.9-0.8,1.5-1.4c0.5-0.6,1-1.3,1.6-2.1
		C392.4,133.3,392.9,132.5,393.3,131.7z"/>
	<path class="st1" d="M421,121.5c-0.5,0.4-0.9,0.9-1.2,1.5c-0.3,0.6-0.5,1.4-0.6,2.4c-0.2,1.7-0.4,3.3-0.4,4.6
		c-0.1,1.4-0.2,2.7-0.2,3.9c-0.1,1.2-0.2,2.3-0.2,3.4c-0.1,1.1-0.2,2.2-0.4,3.3c-0.3,1.5-0.8,2.9-1.5,4.2c-0.7,1.3-1.6,2.4-2.6,3.4
		s-2.1,1.7-3.2,2.3c-1.2,0.6-2.3,0.9-3.5,0.9c-0.7,0-1.4-0.1-2.1-0.3s-1.4-0.4-2-0.6c-0.6-0.3-1.1-0.5-1.5-0.8s-0.6-0.6-0.6-0.8
		c0-0.2,0.1-0.5,0.3-0.9s0.5-0.7,0.8-1s0.6-0.6,0.8-0.8c0.3-0.2,0.5-0.3,0.6-0.3c0.2,0,0.4,0.1,0.6,0.4s0.5,0.6,0.9,0.9
		s0.9,0.6,1.6,0.9c0.6,0.3,1.4,0.4,2.4,0.4c1.3,0,2.4-0.6,3.2-1.7c0.8-1.1,1.4-2.9,1.9-5.2c0.1-0.7,0.2-1.4,0.3-2.1
		c0.1-0.7,0.1-1.3,0.2-1.9s0.1-1.2,0.1-1.8c0-0.6,0-1.2,0.1-1.8c-0.5,0.9-1.1,1.8-1.7,2.7c-0.6,0.9-1.3,1.7-1.9,2.4
		c-0.7,0.7-1.4,1.3-2,1.7c-0.7,0.4-1.4,0.7-2,0.7c-0.5,0-1-0.1-1.6-0.4s-1.1-0.7-1.6-1.3c-0.5-0.6-0.9-1.4-1.2-2.3
		c-0.3-0.9-0.5-2.1-0.5-3.4c0-1.1,0.1-2.2,0.4-3.3c0.3-1.1,0.7-2.1,1.2-3.1s1.2-1.9,2-2.8s1.8-1.7,2.9-2.4c0.4-0.3,0.9-0.5,1.3-0.8
		c0.5-0.2,1-0.5,1.5-0.6s1-0.3,1.6-0.5c0.5-0.1,1.1-0.2,1.6-0.2c0.3,0,0.6,0,0.9,0.1s0.6,0.2,0.9,0.3c0.3,0.1,0.6,0.3,0.9,0.5
		s0.5,0.3,0.8,0.5c0.4-0.3,0.8-0.6,1.2-0.8c0.4-0.2,0.8-0.4,1.2-0.6L421,121.5z M408.7,138.1c0.3,0,0.6-0.2,1.1-0.6s1-0.9,1.5-1.6
		c0.6-0.7,1.2-1.5,1.8-2.5c0.6-1,1.2-2,1.7-3.2c0.1-0.6,0.1-1.3,0.2-2s0.2-1.4,0.3-2.2c0-0.2,0.1-0.5,0.2-0.7s0.2-0.5,0.2-0.7
		c-0.2-0.2-0.5-0.4-0.8-0.6s-0.5-0.4-0.8-0.6s-0.6-0.3-0.9-0.4s-0.7-0.2-1-0.2c-0.7,0-1.3,0.2-1.9,0.5s-1.1,0.7-1.6,1.2
		s-0.9,1.1-1.3,1.8c-0.4,0.7-0.7,1.3-1,2s-0.5,1.4-0.6,2.1s-0.2,1.3-0.2,1.9c0,0.9,0.1,1.7,0.2,2.4c0.2,0.7,0.4,1.3,0.6,1.8
		c0.3,0.5,0.6,0.9,0.9,1.1C407.9,138,408.3,138.1,408.7,138.1z"/>
	<path class="st1" d="M438.8,124.3c0,0.4,0,0.8-0.1,1.3s-0.3,0.9-0.6,1.4c-0.3,0.5-0.7,1-1.3,1.5c-0.5,0.5-1.3,1.1-2.2,1.6
		s-2,1.1-3.3,1.7s-2.8,1.2-4.6,1.8c0.1,0.8,0.3,1.5,0.5,2.1s0.5,1.2,0.9,1.6c0.3,0.4,0.7,0.8,1.1,1s0.8,0.4,1.2,0.4
		c0.3,0,0.7,0,1.1-0.1c0.5-0.1,1-0.3,1.6-0.5s1.2-0.6,2-1s1.6-1,2.4-1.7c0.1,0,0.2,0.1,0.3,0.2s0.2,0.2,0.2,0.3
		c0.1,0.1,0.1,0.2,0.2,0.3l0.1,0.2c-1.2,1-2.3,1.9-3.2,2.5c-0.9,0.7-1.8,1.2-2.6,1.5c-0.8,0.4-1.5,0.6-2.1,0.8
		c-0.6,0.1-1.2,0.2-1.8,0.2c-0.5,0-1.1-0.1-1.8-0.4s-1.3-0.7-1.9-1.3s-1.1-1.3-1.5-2.3c-0.4-0.9-0.6-2.1-0.6-3.5
		c0-1.1,0.1-2.2,0.4-3.3c0.3-1.1,0.7-2.1,1.2-3.1s1.2-1.9,1.9-2.8c0.8-0.9,1.6-1.7,2.6-2.4c0.3-0.3,0.7-0.5,1.2-0.8s0.9-0.5,1.4-0.7
		s1-0.4,1.5-0.5s1-0.2,1.5-0.2c0.7,0,1.3,0.1,1.8,0.3c0.5,0.2,0.9,0.5,1.3,0.9s0.6,0.8,0.8,1.2C438.7,123.4,438.8,123.8,438.8,124.3
		z M430.3,124.1c-0.4,0.4-0.9,0.9-1.3,1.5s-0.8,1.2-1.1,1.8c-0.3,0.7-0.6,1.3-0.8,2.1c-0.2,0.7-0.3,1.5-0.4,2.2
		c1.8-0.7,3.2-1.3,4.2-1.9s1.8-1.1,2.4-1.6c0.5-0.5,0.9-1,1-1.5s0.2-1,0.2-1.5c0-0.4-0.1-0.7-0.2-1s-0.2-0.5-0.4-0.7
		c-0.2-0.2-0.4-0.3-0.6-0.4s-0.5-0.1-0.7-0.1s-0.6,0.1-1.1,0.3C431.2,123.4,430.7,123.7,430.3,124.1z"/>
	<path class="st1" d="M462.1,138.8c-0.7,0.4-1.3,0.7-1.9,1.1c-0.6,0.3-1.2,0.6-1.8,0.9c-0.5,0.2-1,0.4-1.5,0.6s-0.8,0.2-1.1,0.2
		c-0.5,0-0.9-0.2-1.2-0.7c-0.3-0.5-0.5-1.1-0.5-1.8c0-0.3,0-0.7,0.1-1.4c0.1-0.7,0.2-1.4,0.4-2.3c0.1-0.9,0.3-1.8,0.5-2.7
		c0.2-1,0.3-1.9,0.5-2.8c0.1-0.9,0.3-1.7,0.4-2.4c0.1-0.7,0.1-1.2,0.1-1.5c0-1-0.1-1.7-0.3-2.1c-0.2-0.4-0.6-0.6-1.2-0.6
		c-0.2,0-0.5,0.1-0.9,0.3c-0.4,0.2-0.9,0.5-1.5,0.9c-0.5,0.4-1.1,0.9-1.7,1.5s-1.1,1.3-1.7,2.2c-0.4,0.7-0.8,1.5-1,2.5
		c-0.3,1-0.5,2.1-0.8,3.5c-0.1,0.6-0.2,1.2-0.3,1.7c-0.1,0.5-0.1,1-0.2,1.5s-0.1,0.9-0.1,1.3s0,0.8,0,1.2c-0.2,0.1-0.5,0.2-0.8,0.4
		c-0.4,0.2-0.7,0.3-1.1,0.5s-0.7,0.3-1.1,0.5c-0.3,0.2-0.6,0.3-0.8,0.4l-0.8-0.7c0.2-1,0.4-2,0.6-3.1s0.4-2.2,0.6-3.2
		c0.2-1.1,0.3-2.1,0.5-3.2s0.3-2,0.4-2.9s0.2-1.6,0.3-2.3c0.1-0.7,0.1-1.2,0.1-1.5s0-0.6-0.1-0.8c0-0.2-0.1-0.3-0.2-0.4
		s-0.2-0.2-0.3-0.2c-0.1,0-0.2,0-0.4,0c-0.1,0-0.3,0-0.6,0.1c-0.3,0.1-0.5,0.1-0.8,0.2s-0.6,0.2-1,0.3l-0.4-1.1
		c0.6-0.3,1.3-0.5,2-0.8s1.4-0.5,2-0.7s1.2-0.4,1.6-0.5c0.5-0.1,0.8-0.2,1-0.2s0.4,0,0.5,0.1s0.2,0.2,0.3,0.4
		c0.1,0.2,0.1,0.4,0.1,0.7c0,0.3,0,0.7,0,1.2c0,0.2,0,0.4,0,0.6s0,0.5,0,0.8s0,0.5-0.1,0.8c0,0.3-0.1,0.5-0.1,0.6
		c0.8-0.9,1.6-1.7,2.4-2.4c0.8-0.7,1.6-1.2,2.4-1.6s1.5-0.7,2.3-0.9c0.7-0.2,1.4-0.3,2.1-0.3c0.5,0,0.9,0.1,1.2,0.2
		c0.4,0.1,0.7,0.3,0.9,0.6c0.2,0.3,0.4,0.7,0.6,1.1c0.1,0.5,0.2,1,0.2,1.7c0,0.5,0,1.1-0.1,1.9c-0.1,0.7-0.2,1.5-0.4,2.3
		c-0.1,0.8-0.3,1.7-0.5,2.6s-0.3,1.7-0.5,2.5c-0.1,0.8-0.3,1.5-0.4,2.2s-0.1,1.2-0.1,1.6c0,0.5,0.1,0.8,0.2,1s0.3,0.3,0.6,0.3
		c0.3,0,0.7-0.1,1.1-0.2s0.9-0.3,1.5-0.5L462.1,138.8z"/>
	<path class="st1" d="M476.3,137.8c-0.8,0.6-1.5,1.1-2.3,1.5c-0.8,0.5-1.5,0.8-2.2,1.2s-1.3,0.6-1.9,0.7c-0.6,0.2-1,0.3-1.4,0.3
		s-0.8-0.1-1.2-0.3c-0.4-0.2-0.7-0.5-1-0.9s-0.5-0.8-0.7-1.4c-0.2-0.5-0.3-1.1-0.3-1.7c0-0.3,0-0.5,0-0.8s0-0.6,0.1-0.8
		c0-0.3,0.1-0.6,0.1-0.9s0.1-0.7,0.1-1.1l1.7-10.2h-3.1l-0.4-0.7l2.4-1.4h1.5l0.1-0.8c0.1-0.6,0.2-1.1,0.3-1.4
		c0.1-0.4,0.2-0.7,0.3-0.9s0.3-0.4,0.4-0.6s0.3-0.3,0.5-0.4l2.9-1.7l0.6,0.5c-0.1,0.1-0.2,0.4-0.3,0.7c-0.1,0.3-0.2,0.7-0.4,1.2
		c-0.1,0.5-0.3,1.2-0.4,2.1l-0.2,1.2h5.5l0.5,0.6c-0.1,0.2-0.4,0.4-0.6,0.7c-0.3,0.3-0.5,0.5-0.8,0.7s-0.6,0.5-0.8,0.7
		c-0.3,0.2-0.5,0.3-0.6,0.4c-0.2-0.4-0.5-0.7-1-0.8c-0.5-0.1-1.3-0.2-2.3-0.2h-0.1l-1.5,9.2c0,0.3-0.1,0.6-0.1,0.9s-0.1,0.6-0.1,0.9
		s0,0.5,0,0.8c0,0.2,0,0.4,0,0.6c0,0.9,0.2,1.5,0.5,1.9s0.7,0.6,1.1,0.6c0.5,0,1.1-0.1,1.9-0.3c0.7-0.2,1.6-0.6,2.7-1.1L476.3,137.8
		z"/>
	<path class="st1" d="M499.5,138.9c-1.2,0.8-2.3,1.4-3.2,1.9c-0.9,0.5-1.7,0.7-2.3,0.7c-0.3,0-0.6-0.1-0.9-0.4
		c-0.3-0.2-0.6-0.6-0.8-1.2s-0.4-1.2-0.5-2s-0.1-1.9-0.1-3c-0.6,1-1.2,1.8-1.9,2.6c-0.7,0.8-1.4,1.5-2.1,2.1s-1.5,1-2.2,1.4
		s-1.5,0.5-2.3,0.5c-0.3,0-0.7-0.1-1.1-0.3c-0.4-0.2-0.8-0.6-1.1-1c-0.4-0.4-0.7-1-0.9-1.7c-0.2-0.7-0.4-1.4-0.4-2.3
		c0-0.4,0-1,0.1-1.6s0.2-1.3,0.3-2.1c0.1-0.7,0.2-1.5,0.4-2.3c0.1-0.8,0.3-1.5,0.4-2.2s0.2-1.4,0.3-1.9c0.1-0.6,0.1-1.1,0.1-1.4
		s0-0.6-0.1-0.8c0-0.2-0.1-0.3-0.2-0.4s-0.2-0.2-0.3-0.2c-0.1,0-0.2,0-0.4,0c-0.1,0-0.3,0-0.6,0.1c-0.2,0-0.5,0.1-0.7,0.2
		c-0.3,0.1-0.6,0.2-0.9,0.3l-0.3-1c0.6-0.3,1.3-0.5,2-0.8s1.3-0.5,2-0.7c0.6-0.2,1.2-0.4,1.6-0.5s0.8-0.2,1-0.2
		c0.4,0,0.7,0.1,0.9,0.4s0.2,0.7,0.2,1.4c0,0.4,0,1-0.1,1.6c-0.1,0.7-0.2,1.4-0.3,2.2c-0.1,0.8-0.3,1.6-0.4,2.5s-0.3,1.7-0.4,2.5
		s-0.2,1.5-0.3,2.2c-0.1,0.7-0.1,1.2-0.1,1.6c0,1.2,0.1,2.1,0.4,2.6c0.3,0.6,0.7,0.8,1.1,0.8c0.3,0,0.7-0.1,1.1-0.4s1-0.7,1.6-1.2
		c0.6-0.6,1.2-1.3,1.9-2.2s1.4-2,2.1-3.3c0.1-0.6,0.2-1.2,0.3-1.8c0.1-0.6,0.2-1.2,0.3-1.8c0.1-0.6,0.2-1.1,0.2-1.6
		c0.1-0.5,0.1-0.9,0.1-1.3c0-0.3,0-0.6-0.1-0.8c0-0.2-0.1-0.3-0.2-0.4s-0.2-0.2-0.3-0.2c-0.1,0-0.2,0-0.3,0s-0.3,0-0.5,0.1
		c-0.2,0-0.4,0.1-0.7,0.2c-0.3,0.1-0.5,0.2-0.8,0.3l-0.4-1c0.6-0.3,1.3-0.5,1.9-0.8s1.3-0.5,1.9-0.7s1.1-0.4,1.6-0.5s0.8-0.2,1-0.2
		c0.4,0,0.7,0.1,0.8,0.4s0.2,0.7,0.2,1.4c0,0.4,0,1-0.1,1.6c-0.1,0.7-0.2,1.4-0.3,2.1c-0.1,0.8-0.3,1.6-0.4,2.4s-0.3,1.6-0.4,2.4
		s-0.2,1.5-0.3,2.2c-0.1,0.7-0.1,1.3-0.1,1.7c0,1.3,0.1,2.3,0.3,2.8c0.2,0.6,0.5,0.9,0.9,0.9s0.8,0,1.1-0.1s0.8-0.2,1.4-0.5
		L499.5,138.9z"/>
	<path class="st1" d="M518.4,122.3c-0.2,0.2-0.4,0.5-0.6,0.9c-0.2,0.4-0.5,0.8-0.7,1.1c-0.2,0.4-0.5,0.7-0.7,1s-0.4,0.4-0.6,0.4
		c-0.3,0-0.5-0.1-0.7-0.2c-0.2-0.2-0.4-0.3-0.6-0.5c-0.2-0.2-0.4-0.4-0.6-0.5c-0.2-0.2-0.4-0.2-0.6-0.2c-0.4,0-0.8,0.2-1.3,0.7
		s-1,1.1-1.5,1.8c-0.5,0.8-1,1.6-1.4,2.6s-0.8,2-1.1,3c-0.2,0.5-0.3,1.1-0.4,1.8c-0.1,0.6-0.2,1.3-0.3,1.9c-0.1,0.7-0.2,1.3-0.2,1.9
		s-0.1,1.2,0,1.8c-0.2,0.1-0.5,0.2-0.8,0.4c-0.3,0.2-0.7,0.3-1.1,0.5s-0.7,0.3-1.1,0.5s-0.6,0.3-0.8,0.4l-0.8-0.7
		c0.2-1,0.4-2.1,0.6-3.1c0.2-1.1,0.4-2.1,0.6-3.2s0.3-2.1,0.5-3c0.2-1,0.3-1.9,0.4-2.8s0.2-1.6,0.3-2.3c0.1-0.7,0.1-1.2,0.1-1.7
		c0-0.3,0-0.6-0.1-0.8c-0.1-0.2-0.1-0.3-0.2-0.4s-0.2-0.2-0.3-0.2c-0.1,0-0.2,0-0.3,0c-0.1,0-0.3,0-0.6,0.1c-0.2,0-0.5,0.1-0.7,0.2
		c-0.3,0.1-0.6,0.2-0.9,0.3l-0.3-1c0.6-0.3,1.3-0.5,2-0.8s1.3-0.5,2-0.7c0.6-0.2,1.2-0.4,1.6-0.5c0.5-0.1,0.8-0.2,1-0.2
		s0.4,0,0.5,0.1s0.2,0.2,0.3,0.4c0.1,0.2,0.1,0.4,0.1,0.7s0,0.7,0,1.2c0,0.2,0,0.4-0.1,0.7s-0.1,0.7-0.1,1.1
		c-0.1,0.4-0.1,0.8-0.2,1.2c-0.1,0.4-0.1,0.7-0.2,1c0.7-1.3,1.4-2.4,2-3.2s1.2-1.5,1.8-2s1.1-0.8,1.6-1s1-0.3,1.5-0.3
		c0.3,0,0.5,0.1,0.8,0.2s0.5,0.3,0.8,0.5s0.5,0.4,0.8,0.6C517.8,122,518.1,122.2,518.4,122.3z"/>
	<path class="st1" d="M550.9,129c-0.8,0.2-1.4,0.5-1.8,0.8c-0.4,0.3-0.6,0.6-0.6,1c-0.1,0.4-0.1,0.9-0.2,1.5s-0.2,1.2-0.3,1.9
		s-0.2,1.3-0.2,1.8c-0.1,0.6-0.1,1-0.2,1.3c-1.1,0.9-2.1,1.6-3,2.1s-1.7,0.9-2.4,1.2s-1.4,0.5-2.1,0.6s-1.2,0.2-1.8,0.2
		c-1.3,0-2.5-0.2-3.7-0.7s-2.2-1.2-3.1-2.1s-1.6-2.1-2.2-3.4c-0.5-1.4-0.8-2.9-0.8-4.6c0-1.4,0.2-2.7,0.5-4.1s0.8-2.7,1.4-3.9
		c0.6-1.2,1.3-2.4,2.1-3.5s1.7-2,2.7-2.8c1.3-1,2.7-1.8,4.2-2.3c1.5-0.6,3.3-0.9,5.2-0.9c0.5,0,1,0,1.5,0.2c0.6,0.1,1.1,0.2,1.7,0.4
		c0.6,0.2,1.1,0.4,1.6,0.7c0.5,0.3,1,0.6,1.3,0.9c0.1,0.1,0,0.3-0.1,0.6c-0.2,0.3-0.4,0.6-0.7,1s-0.6,0.7-0.9,1.1
		c-0.3,0.3-0.6,0.6-0.8,0.8l-0.8-0.2c-0.7-1-1.5-1.7-2.4-2.1c-0.9-0.5-2.1-0.7-3.5-0.7c-0.6,0-1.3,0.2-2.1,0.5
		c-0.8,0.4-1.6,0.9-2.3,1.5s-1.3,1.3-1.9,2.2c-0.6,0.9-1.1,1.9-1.5,3s-0.7,2.2-0.9,3.4c-0.2,1.1-0.3,2.2-0.3,3.2
		c0,1.5,0.2,2.9,0.7,4s1,2,1.8,2.8s1.5,1.3,2.4,1.6s1.8,0.5,2.6,0.5c0.7,0,1.4-0.1,2.1-0.3c0.7-0.2,1.3-0.5,1.8-0.8l0.9-6.4
		c0-0.1,0-0.3-0.1-0.4s-0.3-0.3-0.6-0.4s-0.8-0.3-1.5-0.4c-0.6-0.1-1.5-0.3-2.6-0.5l0.1-1.1h10.8L550.9,129z"/>
	<path class="st1" d="M583.3,138.8c-1.4,0.8-2.6,1.4-3.7,1.9c-1.1,0.5-2,0.8-2.7,0.8c-0.4,0-0.8-0.2-1.1-0.7s-0.5-1.1-0.5-1.8
		c0-0.3,0-0.7,0.1-1.3c0.1-0.6,0.2-1.4,0.4-2.2c0.1-0.8,0.3-1.7,0.5-2.7s0.3-1.9,0.5-2.8c0.1-0.9,0.3-1.7,0.4-2.5
		c0.1-0.8,0.1-1.4,0.1-1.9c0-0.8-0.1-1.4-0.3-1.7c-0.2-0.3-0.4-0.5-0.7-0.5c-0.2,0-0.5,0.1-0.9,0.2c-0.4,0.2-0.8,0.4-1.3,0.8
		s-1,0.8-1.5,1.4s-1.1,1.2-1.6,2c-0.3,0.5-0.6,0.9-0.8,1.4s-0.4,1-0.5,1.5s-0.3,1.1-0.4,1.7c-0.1,0.6-0.2,1.3-0.3,2
		c-0.2,1.3-0.3,2.4-0.4,3.3c-0.1,0.9-0.1,1.6,0,2.2c-0.2,0.1-0.5,0.2-0.9,0.4c-0.4,0.2-0.7,0.3-1.1,0.5c-0.4,0.2-0.8,0.3-1.1,0.5
		s-0.6,0.3-0.8,0.4l-0.8-0.7c0.3-1.5,0.6-3,0.9-4.5c0.3-1.5,0.6-3,0.8-4.4s0.4-2.6,0.5-3.6c0.1-1.1,0.2-1.9,0.2-2.4
		c0-1-0.1-1.6-0.3-2s-0.5-0.6-0.9-0.6c-0.2,0-0.4,0.1-0.8,0.2s-0.8,0.4-1.2,0.8c-0.5,0.3-1,0.8-1.5,1.3s-1.1,1.2-1.6,2
		c-0.3,0.4-0.5,0.9-0.8,1.3c-0.2,0.5-0.4,1-0.6,1.5c-0.2,0.5-0.3,1.1-0.4,1.7c-0.1,0.6-0.3,1.3-0.4,2c-0.2,1.3-0.4,2.4-0.4,3.3
		c-0.1,0.9-0.1,1.6-0.1,2.2c-0.2,0.1-0.5,0.2-0.8,0.4c-0.3,0.2-0.7,0.3-1.1,0.5c-0.4,0.2-0.7,0.3-1.1,0.5c-0.3,0.2-0.6,0.3-0.8,0.4
		l-0.8-0.7c0.3-1.5,0.6-3.1,0.9-4.7s0.5-3.2,0.8-4.7c0.2-1.5,0.4-2.8,0.6-4c0.1-1.2,0.2-2.1,0.2-2.7c0-0.3,0-0.6-0.1-0.8
		c0-0.2-0.1-0.3-0.2-0.5s-0.2-0.2-0.3-0.2s-0.2,0-0.3,0s-0.4,0-0.6,0.1c-0.3,0.1-0.5,0.1-0.8,0.2s-0.6,0.2-1,0.3l-0.3-1.1
		c0.6-0.3,1.3-0.5,2-0.8s1.3-0.5,1.9-0.7c0.6-0.2,1.1-0.4,1.6-0.5s0.8-0.2,1-0.2s0.4,0,0.5,0.1s0.2,0.2,0.3,0.4
		c0.1,0.2,0.1,0.4,0.1,0.8c0,0.3,0,0.7,0,1.2c0,0.1,0,0.3,0,0.5s0,0.4-0.1,0.7s0,0.5-0.1,0.8c0,0.3-0.1,0.5-0.1,0.7
		c0.9-1,1.7-1.8,2.5-2.5s1.5-1.2,2.2-1.6s1.3-0.7,2-0.9c0.6-0.2,1.2-0.3,1.8-0.3c0.5,0,1,0.1,1.4,0.3s0.7,0.5,0.9,0.8
		c0.2,0.4,0.4,0.8,0.5,1.2c0.1,0.4,0.1,0.9,0.1,1.4c0,0.2,0,0.4,0,0.6s0,0.4-0.1,0.7c0.9-0.9,1.6-1.7,2.4-2.3c0.7-0.6,1.4-1.2,2-1.5
		c0.6-0.4,1.2-0.7,1.8-0.9s1.1-0.3,1.7-0.3c0.4,0,0.8,0.1,1.2,0.2s0.7,0.4,0.9,0.7s0.5,0.7,0.6,1.2s0.2,1.1,0.2,1.8
		c0,0.5,0,1.2-0.1,1.9c-0.1,0.7-0.2,1.5-0.4,2.4c-0.1,0.8-0.3,1.7-0.5,2.5c-0.2,0.9-0.3,1.7-0.5,2.5s-0.3,1.5-0.4,2.1
		c-0.1,0.6-0.1,1.2-0.1,1.6c0,0.5,0.1,0.8,0.2,1s0.3,0.2,0.6,0.2c0.4,0,0.8-0.1,1.3-0.2c0.4-0.1,0.9-0.3,1.5-0.5L583.3,138.8z"/>
	<path class="st1" d="M604.8,127.5c0,1.5-0.3,3.1-0.8,4.6s-1.3,3-2.4,4.5c-0.5,0.6-1.1,1.3-1.7,1.9c-0.6,0.6-1.3,1.1-2,1.6
		s-1.5,0.8-2.4,1.1c-0.8,0.3-1.7,0.4-2.7,0.4c-0.3,0-0.7-0.1-1.1-0.2c-0.4-0.2-0.8-0.4-1.2-0.6s-0.8-0.6-1.2-1s-0.8-0.8-1.1-1.2
		c-0.3-0.4-0.6-0.9-0.8-1.3c-0.2-0.5-0.3-0.9-0.3-1.4c0-0.4,0-1,0.1-1.7c0.1-0.8,0.2-1.7,0.4-2.7c0.1-1,0.3-2.2,0.5-3.4
		s0.4-2.5,0.6-3.8s0.4-2.5,0.6-3.8s0.4-2.4,0.5-3.5s0.3-2,0.4-2.9c0.1-0.8,0.1-1.5,0.1-1.9c0-0.3,0-0.6-0.1-0.8
		c-0.1-0.2-0.2-0.3-0.3-0.4s-0.2-0.2-0.4-0.2c-0.1,0-0.3,0-0.4,0s-0.3,0-0.6,0.1c-0.2,0.1-0.5,0.1-0.7,0.2c-0.3,0.1-0.6,0.2-0.9,0.3
		l-0.3-1.1c0.6-0.3,1.3-0.6,2-0.8c0.7-0.3,1.4-0.5,2-0.7s1.2-0.4,1.7-0.5s0.8-0.2,1.1-0.2c0.4,0,0.7,0.1,0.9,0.4s0.2,0.7,0.2,1.4
		c0,0.4,0,1-0.1,1.7s-0.2,1.5-0.3,2.4s-0.3,1.9-0.4,2.9c-0.2,1-0.3,2.1-0.5,3.2s-0.4,2.2-0.5,3.3s-0.4,2.2-0.5,3.3
		c0.8-1.1,1.5-2.1,2.3-2.8s1.5-1.4,2.2-1.8c0.7-0.5,1.4-0.8,2-1s1.1-0.3,1.6-0.3c0.6,0,1.2,0.2,1.7,0.5s1,0.8,1.4,1.3
		c0.4,0.6,0.7,1.3,0.9,2.2S604.8,126.4,604.8,127.5z M598.1,123.7c-0.3,0-0.6,0.2-1.1,0.5s-1,0.7-1.6,1.3c-0.6,0.6-1.2,1.3-1.8,2.1
		s-1.2,1.7-1.8,2.7c-0.1,1-0.3,1.9-0.4,2.7s-0.1,1.4-0.1,1.9c0,0.4,0.1,0.8,0.3,1.2c0.2,0.4,0.5,0.8,0.9,1.2
		c0.4,0.4,0.8,0.6,1.2,0.9s0.9,0.3,1.3,0.3c0.5,0,0.9-0.1,1.3-0.2c0.4-0.2,0.8-0.4,1.1-0.6c0.3-0.3,0.7-0.5,1-0.9
		c0.3-0.3,0.5-0.7,0.8-1c0.3-0.5,0.6-1,0.8-1.5s0.4-1.1,0.5-1.7s0.2-1.1,0.3-1.7c0-0.5,0.1-1.1,0.1-1.5c0-0.9-0.1-1.7-0.2-2.4
		c-0.2-0.7-0.4-1.3-0.6-1.7c-0.3-0.5-0.6-0.8-0.9-1.1C598.8,123.8,598.5,123.7,598.1,123.7z"/>
	<path class="st1" d="M619.5,114.7c-0.9,0.2-1.7,0.4-2.2,0.7s-0.8,0.5-0.9,0.7l-1.3,9.4h11.8l1.3-9.4c0-0.2-0.2-0.4-0.6-0.6
		c-0.4-0.3-1.1-0.5-2.1-0.7l0.1-1.1h9.7l-0.2,1.1c-0.9,0.2-1.7,0.4-2.2,0.7s-0.8,0.5-0.9,0.7l-3.1,22.2c0,0.2,0.2,0.4,0.6,0.6
		s1.1,0.5,2.1,0.7l-0.2,1.1h-9.7l0.2-1.1c0.9-0.2,1.7-0.4,2.2-0.7c0.5-0.2,0.8-0.5,0.8-0.7l1.5-10.7h-11.8l-1.5,10.7
		c0,0.2,0.2,0.4,0.6,0.6s1.1,0.5,2.1,0.7l-0.2,1.1h-9.7l0.2-1.1c0.9-0.2,1.7-0.4,2.2-0.7c0.5-0.2,0.8-0.5,0.9-0.7l3.2-22.2
		c0-0.2-0.2-0.4-0.6-0.6c-0.4-0.3-1.1-0.5-2.1-0.7l0.2-1.1h9.7L619.5,114.7z"/>
</g>
</svg>
